<svg xmlns="http://www.w3.org/2000/svg" viewBox="0 0 64 64">
  <rect width="64" height="64" fill="#060607"/>
  <path d="M32 1.5 36.2 6 32 10.5 27.8 6Z" fill="#A00024"/>
  <path d="M6 14.5 9 18.7 6 22.9 3 18.7Z" fill="#A00024"/>
  <path d="M58 14.5 61 18.7 58 22.9 55 18.7Z" fill="#A00024"/>
  <path d="M2 27h8L6 36.5Z" fill="#F4F4F5"/>
  <path d="M54 27h8L58 36.5Z" fill="#F4F4F5"/>
  <g fill="none" stroke="#F4F4F5" stroke-linecap="square">
    <path d="M15 53V31a17 17 0 0 1 34 0v22" stroke-width="5"/>
    <path d="M23 53V32a9 9 0 0 1 18 0v21" stroke-width="4"/>
    <path d="M29.2 25.5V53M34.8 25.5V53" stroke-width="3"/>
    <path d="M9 55.5h46" stroke-width="5"/>
    <path d="M15 61.5h34" stroke-width="3.5"/>
  </g>
  <path d="M21 40h22" fill="none" stroke="#A00024" stroke-width="4.5" stroke-linecap="square"/>
</svg>
